<svg width="199" height="157" viewBox="0 0 199 157" fill="none" xmlns="http://www.w3.org/2000/svg">
<path d="M25.2948 4.5114C32.5673 4.1062 109.493 -0.0525333 162.341 1.09911C162.488 1.09911 162.629 1.15754 162.733 1.26153C162.837 1.36552 162.895 1.50655 162.895 1.65361C163.961 107.498 162.575 102.06 163.023 102.636C199.278 147.678 196.847 144.394 196.911 144.713C197.415 147.701 197.671 150.726 197.679 153.756C197.679 153.903 197.621 154.044 197.517 154.148C197.413 154.252 197.272 154.31 197.124 154.31C191.942 154.417 3.26432 158.021 2.26196 153.948C1.52445 150.761 1.08888 147.513 0.961031 144.244C0.957547 144.17 0.968963 144.096 0.994606 144.027C1.02025 143.957 1.0596 143.893 1.11032 143.839C3.24299 141.386 27.3422 113.342 34.2521 104.896C34.3038 104.844 34.3423 104.78 34.3646 104.709C34.3868 104.639 34.3921 104.564 34.38 104.491C33.8255 99.6927 25.2949 23.4495 24.7404 5.08722C24.7403 4.93813 24.798 4.7948 24.9014 4.68741C25.0048 4.58001 25.1458 4.51693 25.2948 4.5114Z" fill="white"/>
<path d="M157.713 6.21753C157.703 5.96985 157.601 5.73468 157.428 5.55743C157.254 5.38019 157.022 5.27345 156.774 5.25783C132.675 4.34078 31.8848 8.4995 30.9464 8.54216C30.8137 8.54742 30.6834 8.57956 30.5635 8.63666C30.4436 8.69375 30.3365 8.77461 30.2488 8.87431C30.161 8.97402 30.0945 9.0905 30.0531 9.2167C30.0117 9.3429 29.9964 9.47619 30.008 9.60849C33.9961 52.9231 38.1335 95.5766 38.1762 96.0885C38.2002 96.3157 38.3029 96.5274 38.4665 96.6871C38.63 96.8467 38.8441 96.9442 39.0719 96.9628C57.3063 98.4344 139.691 96.1311 157.926 95.5766C158.158 95.5685 158.38 95.4783 158.551 95.3221C158.723 95.1659 158.834 94.9538 158.864 94.7236C159.803 87.7071 157.862 9.5445 157.713 6.21753ZM157.009 93.6572C147.348 93.9345 60.6972 96.4937 40.0529 95.0861C39.4558 88.9867 35.7876 50.0653 31.9701 10.4829C42.6335 10.0563 131.63 6.47345 155.772 7.21989C155.985 15.9425 157.67 83.4204 157.009 93.6359V93.6572Z" fill="#501200"/>
<path d="M197.871 144.628C197.594 143.711 200.323 147.55 163.897 102.231C164.75 90.0956 163.897 10.7814 163.897 1.73888C163.9 1.53825 163.863 1.33904 163.788 1.15286C163.713 0.966685 163.602 0.797242 163.461 0.654369C163.321 0.511496 163.153 0.398044 162.968 0.320618C162.782 0.243192 162.584 0.203333 162.383 0.203353C109.727 -0.948291 33.7402 3.14644 25.2521 3.61563C25.0504 3.62386 24.8523 3.67178 24.6692 3.75665C24.486 3.84152 24.3214 3.96169 24.1847 4.11025C24.048 4.25882 23.942 4.43287 23.8726 4.62246C23.8033 4.81205 23.772 5.01345 23.7806 5.21514C24.3351 23.4922 32.8231 99.2874 33.3989 104.512C26.2545 113.214 1.40882 142.048 0.38514 143.285C0.122643 143.585 -0.0147569 143.974 0.00125787 144.372C0.133525 147.705 0.576191 151.018 1.32351 154.268C1.3959 154.563 1.55407 154.829 1.77804 155.034C2.002 155.239 2.2817 155.373 2.58179 155.419C22.0318 158.618 177.354 155.782 197.167 155.419C197.565 155.419 197.947 155.263 198.23 154.984C198.514 154.704 198.676 154.324 198.681 153.927C198.676 150.81 198.405 147.699 197.871 144.628ZM25.7426 5.47106C35.9368 4.89524 110.111 0.971122 161.914 2.05879C161.914 12.7222 162.746 89.0293 161.914 101.74C152.402 102.252 76.4363 103.276 35.233 103.873C34.4013 95.8752 26.3825 23.94 25.7426 5.47106ZM34.8278 105.707C41.0979 105.707 152.765 104.278 162.596 103.574C165.646 107.37 187.079 134.007 194.97 143.69C173.644 144.031 18.6835 143.37 2.79506 143.306C7.93481 137.42 28.2805 113.747 34.8278 105.749V105.707ZM196.719 153.308C185.416 153.521 24.1218 156.571 3.15762 153.308C2.55474 150.65 2.16958 147.946 2.00597 145.225C10.43 145.225 192.454 145.673 196.079 145.588C196.472 148.157 196.686 150.751 196.719 153.351V153.308Z" fill="#501200"/>
<path d="M136.151 138.23C135.256 137.932 135 136.78 134.85 135.714C134.467 132.898 134.722 122.491 136.407 121.297C138.092 120.102 166.371 119.313 167.886 120.209C169.4 121.105 173.409 133.73 173.239 136.46C173.253 136.745 173.187 137.029 173.047 137.278C172.907 137.527 172.7 137.731 172.449 137.868C170.658 138.593 138.391 138.934 136.151 138.23ZM137.004 136.439C140.63 137.1 166.862 136.609 171.298 136.097C170.465 131.196 168.965 126.431 166.841 121.937C157.083 121.599 147.314 121.927 137.602 122.918C136.855 124.496 136.215 134.519 137.004 136.332V136.439Z" fill="#501200"/>
<path d="M112.415 138.102H50.8869C50.1633 138.04 49.4895 137.708 48.9984 137.173C48.5074 136.638 48.235 135.939 48.235 135.212C48.235 134.486 48.5074 133.786 48.9984 133.251C49.4895 132.716 50.1633 132.385 50.8869 132.323H112.415C113.138 132.385 113.812 132.716 114.303 133.251C114.794 133.786 115.067 134.486 115.067 135.212C115.067 135.939 114.794 136.638 114.303 137.173C113.812 137.708 113.138 138.04 112.415 138.102Z" fill="#501200"/>
<path d="M46.9628 112.084C46.9628 113.278 45.5339 114.344 43.7637 114.344C41.9936 114.344 40.5647 113.384 40.5647 112.211C40.5647 111.039 42.0149 110.079 43.7637 110.079C45.5125 110.079 46.9628 110.911 46.9628 112.084Z" fill="#FF7449"/>
<path d="M63.7469 112.638C63.7469 113.875 62.318 114.963 60.5479 114.963C58.7778 114.963 57.3489 113.982 57.3489 112.83C57.3489 111.678 58.7778 110.505 60.5479 110.505C62.318 110.505 63.7469 111.465 63.7469 112.638Z" fill="#FF7449"/>
<path d="M82.6638 113.342C82.6638 114.643 81.1709 115.794 79.3155 115.794C77.4601 115.794 75.9672 114.749 75.9672 113.449C75.9672 112.148 77.4601 110.996 79.3155 110.996C81.1709 110.996 82.6638 112.062 82.6638 113.342Z" fill="#FF7449"/>
<path d="M92.5594 113.256C92.5594 113.828 92.8964 114.376 93.4963 114.78C94.0963 115.184 94.9099 115.41 95.7584 115.41C96.6068 115.41 97.4205 115.184 98.0204 114.78C98.6203 114.376 98.9574 113.828 98.9574 113.256C98.9574 112.685 98.6203 112.137 98.0204 111.733C97.4205 111.329 96.6068 111.102 95.7584 111.102C94.9099 111.102 94.0963 111.329 93.4963 111.733C92.8964 112.137 92.5594 112.685 92.5594 113.256Z" fill="#FF7449"/>
<path d="M109.28 112.702C109.28 113.29 109.617 113.854 110.217 114.27C110.816 114.686 111.63 114.92 112.479 114.92C113.327 114.92 114.141 114.686 114.741 114.27C115.341 113.854 115.678 113.29 115.678 112.702C115.678 112.114 115.341 111.55 114.741 111.134C114.141 110.718 113.327 110.484 112.479 110.484C111.63 110.484 110.816 110.718 110.217 111.134C109.617 111.55 109.28 112.114 109.28 112.702Z" fill="#FF7449"/>
<path d="M127.301 112.809C127.301 113.431 127.653 114.028 128.281 114.467C128.909 114.907 129.761 115.155 130.649 115.155C131.537 115.155 132.389 114.907 133.017 114.467C133.644 114.028 133.997 113.431 133.997 112.809C133.997 112.186 133.644 111.59 133.017 111.15C132.389 110.71 131.537 110.463 130.649 110.463C129.761 110.463 128.909 110.71 128.281 111.15C127.653 111.59 127.301 112.186 127.301 112.809Z" fill="#FF7449"/>
<path d="M144.383 112.702C144.383 113.324 144.736 113.921 145.364 114.361C145.992 114.801 146.844 115.048 147.732 115.048C148.62 115.048 149.471 114.801 150.099 114.361C150.727 113.921 151.08 113.324 151.08 112.702C151.08 112.08 150.727 111.483 150.099 111.043C149.471 110.603 148.62 110.356 147.732 110.356C146.844 110.356 145.992 110.603 145.364 111.043C144.736 111.483 144.383 112.08 144.383 112.702Z" fill="#FF7449"/>
<path d="M48.413 123.173C48.413 123.745 48.75 124.292 49.35 124.696C49.9499 125.1 50.7636 125.327 51.612 125.327C52.4604 125.327 53.2741 125.1 53.8741 124.696C54.474 124.292 54.811 123.745 54.811 123.173C54.811 122.602 54.474 122.054 53.8741 121.65C53.2741 121.246 52.4604 121.019 51.612 121.019C50.7636 121.019 49.9499 121.246 49.35 121.65C48.75 122.054 48.413 122.602 48.413 123.173Z" fill="#FF7449"/>
<path d="M65.1118 123.77C65.1118 124.359 65.4489 124.923 66.0488 125.339C66.6487 125.755 67.4624 125.988 68.3109 125.988C69.1593 125.988 69.973 125.755 70.5729 125.339C71.1728 124.923 71.5099 124.359 71.5099 123.77C71.5099 123.182 71.1728 122.618 70.5729 122.202C69.973 121.786 69.1593 121.552 68.3109 121.552C67.4624 121.552 66.6487 121.786 66.0488 122.202C65.4489 122.618 65.1118 123.182 65.1118 123.77Z" fill="#FF7449"/>
<path d="M83.7301 124.432C83.7301 125.054 84.0828 125.651 84.7108 126.09C85.3387 126.53 86.1903 126.778 87.0784 126.778C87.9664 126.778 88.8181 126.53 89.446 126.09C90.0739 125.651 90.4267 125.054 90.4267 124.432C90.4267 123.809 90.0739 123.213 89.446 122.773C88.8181 122.333 87.9664 122.086 87.0784 122.086C86.1903 122.086 85.3387 122.333 84.7108 122.773C84.0828 123.213 83.7301 123.809 83.7301 124.432Z" fill="#FF7449"/>
<path d="M100.322 124.24C100.322 124.811 100.659 125.359 101.259 125.763C101.859 126.167 102.673 126.394 103.521 126.394C104.37 126.394 105.183 126.167 105.783 125.763C106.383 125.359 106.72 124.811 106.72 124.24C106.72 123.668 106.383 123.121 105.783 122.717C105.183 122.313 104.37 122.086 103.521 122.086C102.673 122.086 101.859 122.313 101.259 122.717C100.659 123.121 100.322 123.668 100.322 124.24Z" fill="#FF7449"/>
<path d="M117.042 123.664C117.042 124.252 117.379 124.816 117.979 125.232C118.579 125.648 119.393 125.882 120.241 125.882C121.09 125.882 121.904 125.648 122.504 125.232C123.103 124.816 123.44 124.252 123.44 123.664C123.44 123.076 123.103 122.512 122.504 122.096C121.904 121.68 121.09 121.446 120.241 121.446C119.393 121.446 118.579 121.68 117.979 122.096C117.379 122.512 117.042 123.076 117.042 123.664Z" fill="#FF7449"/>
</svg>
