<svg width="1550" height="1135" viewBox="0 0 1550 1135" fill="none" xmlns="http://www.w3.org/2000/svg">
<line x1="396.684" y1="642.38" x2="525.813" y2="534.028" stroke="#4CC082" stroke-width="34" stroke-linecap="round"/>
<line x1="710.821" y1="1105.19" x2="1007.93" y2="855.891" stroke="#4CC082" stroke-width="20" stroke-linecap="round"/>
<line x1="667.945" y1="483.833" x2="806.266" y2="367.768" stroke="#6F8EFF" stroke-width="22" stroke-linecap="round"/>
<line x1="190.438" y1="662.192" x2="252.311" y2="610.274" stroke="#6F8EFF" stroke-width="30" stroke-linecap="round"/>
<line x1="101.171" y1="557.657" x2="257.793" y2="426.236" stroke="#6F8EFF" stroke-width="19" stroke-linecap="round"/>
<line x1="1381.86" y1="1112.45" x2="1462.07" y2="1045.14" stroke="#8D55E9" stroke-width="10" stroke-linecap="round"/>
<line x1="431.205" y1="169.364" x2="488.403" y2="121.369" stroke="#8D55E9" stroke-width="32" stroke-linecap="round"/>
<line x1="748.827" y1="706.993" x2="981.137" y2="512.061" stroke="#EC6C5A" stroke-width="12" stroke-linecap="round"/>
<line x1="33.3284" y1="883.454" x2="317.05" y2="645.384" stroke="#EC6C5A" stroke-width="12" stroke-linecap="round"/>
<line x1="399.328" y1="1126.3" x2="557.731" y2="993.384" stroke="#8D55E9" stroke-width="12" stroke-linecap="round"/>
<line x1="113.191" y1="342.406" x2="185.751" y2="281.521" stroke="#E350F0" stroke-width="26" stroke-linecap="round"/>
<line x1="1063.93" y1="407.755" x2="1163.54" y2="324.172" stroke="#EC6C5A" stroke-width="26" stroke-linecap="round"/>
<line x1="61.1912" y1="1071.55" x2="193.504" y2="960.521" stroke="#4CC082" stroke-width="26" stroke-linecap="round"/>
<line x1="905.233" y1="1080.26" x2="1245.27" y2="794.935" stroke="#FF5761" stroke-width="2" stroke-linecap="round"/>
<line x1="21.6769" y1="511.993" x2="364.858" y2="224.03" stroke="#4CC082" stroke-linecap="round"/>
<line x1="353.65" y1="514.58" x2="647.439" y2="268.062" stroke="#4CC082" stroke-linecap="round"/>
<line x1="0.500105" y1="710.915" x2="244.034" y2="506.566" stroke="white" stroke-linecap="round"/>
<line x1="98.6505" y1="258.742" x2="257.964" y2="125.062" stroke="white" stroke-linecap="round"/>
<line x1="1300.9" y1="369.413" x2="1545.92" y2="163.815" stroke="#F4DC5A" stroke-width="5" stroke-linecap="round"/>
<line x1="571.054" y1="676.941" x2="651.238" y2="609.658" stroke="#E350F0" stroke-width="40" stroke-linecap="round"/>
<line x1="457.337" y1="975.053" x2="618.127" y2="840.134" stroke="#E350F0" stroke-width="26" stroke-linecap="round"/>
<line x1="1042.07" y1="772.458" x2="1377.25" y2="491.203" stroke="#EC6C5A" stroke-width="6" stroke-linecap="round"/>
<line x1="1344.73" y1="1030.32" x2="1428.56" y2="959.98" stroke="#F4DC5A" stroke-width="51" stroke-linecap="round"/>
<line x1="1326.98" y1="735.396" x2="1393.31" y2="679.734" stroke="#EC6C5A" stroke-width="55" stroke-linecap="round"/>
<line x1="360.978" y1="936.498" x2="395.258" y2="907.734" stroke="#4CC082" stroke-width="55" stroke-linecap="round"/>
<line x1="612.746" y1="215.688" x2="741.123" y2="107.966" stroke="#F4DC5A" stroke-width="35" stroke-linecap="round"/>
<line x1="758.239" y1="812.096" x2="845.978" y2="738.473" stroke="#FF5761" stroke-width="43" stroke-linecap="round"/>
<line x1="368.67" y1="414.859" x2="422.081" y2="370.042" stroke="#6E8EFF" stroke-width="50" stroke-linecap="round"/>
<line x1="755.458" y1="319.196" x2="852.15" y2="238.062" stroke="#6E8EFF" stroke-width="32" stroke-linecap="round"/>
<line x1="1049.81" y1="1061.3" x2="1133.7" y2="990.905" stroke="#8D55E9" stroke-width="36" stroke-linecap="round"/>
<line x1="1004.75" y1="640.832" x2="1148.79" y2="519.966" stroke="#8D55E9" stroke-width="35" stroke-linecap="round"/>
<line x1="1271.88" y1="274.093" x2="1430.7" y2="140.829" stroke="#6E8EFF" stroke-width="21" stroke-linecap="round"/>
<line x1="383.712" y1="297.868" x2="737.505" y2="0.999923" stroke="#F4DC5A" stroke-width="2" stroke-linecap="round"/>
<line x1="1167.42" y1="745.37" x2="1534.51" y2="437.344" stroke="#8D55E9" stroke-width="2" stroke-linecap="round"/>
<line x1="229.005" y1="194.182" x2="391.299" y2="58.0009" stroke="#E350F0" stroke-width="4" stroke-linecap="round"/>
<line x1="111.835" y1="968.861" x2="506.287" y2="637.877" stroke="white" stroke-width="4" stroke-linecap="round"/>
<line x1="1266.96" y1="482.527" x2="1496.7" y2="289.753" stroke="#4CC082" stroke-width="6" stroke-linecap="round"/>
<line x1="1134.71" y1="1109.12" x2="1350.56" y2="928" stroke="white" stroke-width="2" stroke-linecap="round"/>
<line x1="956.34" y1="607.606" x2="1313.62" y2="307.811" stroke="white" stroke-width="5" stroke-linecap="round"/>
<line x1="685.951" y1="998.322" x2="883.299" y2="832.727" stroke="white" stroke-width="3" stroke-linecap="round"/>
<line x1="1032.63" y1="340.575" x2="1306.91" y2="110.429" stroke="white" stroke-linecap="round"/>
<line x1="648.712" y1="704.273" x2="1007.75" y2="403" stroke="#9E8F4D" stroke-width="2" stroke-linecap="round"/>
<line x1="907.027" y1="351.285" x2="1180.79" y2="121.567" stroke="#F4DC5A" stroke-width="13" stroke-linecap="round"/>
<line x1="1252.19" y1="904.258" x2="1505.84" y2="691.424" stroke="#FF5761" stroke-width="8" stroke-linecap="round"/>
<line x1="559.082" y1="392.465" x2="812.729" y2="179.63" stroke="#FF5761" stroke-width="8" stroke-linecap="round"/>
<line x1="1195.08" y1="1013.37" x2="1402.13" y2="839.63" stroke="#4CC082" stroke-width="8" stroke-linecap="round"/>
<line x1="35.9722" y1="206.15" x2="128.779" y2="128.276" stroke="#F4DC5A" stroke-width="24" stroke-linecap="round"/>
</svg>
