
<svg width="1441" height="469" viewBox="0 0 1441 469" fill="none" xmlns="http://www.w3.org/2000/svg">
<path className='hills hills1' d="M290.368 89.748L213.535 119.898C212.836 120.172 212.677 121.09 213.244 121.583L269.656 170.701C269.875 170.891 270.165 170.977 270.451 170.937L354.092 159.266C354.894 159.154 355.237 158.185 354.684 157.593L291.464 89.9958C291.184 89.6965 290.75 89.5983 290.368 89.748Z" fill="#D897A9"/>
<path className='hills hills2' d="M562.462 104.145L463.944 165.413C463.482 165.7 463.252 165.843 463.126 166.07C463 166.297 463 166.568 463 167.111V219.476C463 220.429 463 220.906 463.297 221.199C463.594 221.493 464.071 221.487 465.024 221.475H465.024L1366.14 210.504C1366.32 210.502 1366.41 210.501 1366.5 210.484C1366.58 210.467 1366.67 210.434 1366.84 210.369L1438.72 182.495C1439.34 182.255 1439.65 182.136 1439.83 181.88C1440 181.625 1440 181.293 1440 180.63V8.61258C1440 5.21213 1440 3.5119 1439.23 3.33221C1438.45 3.15252 1437.7 4.67876 1436.2 7.73125L1400.32 80.8218C1399.93 81.6173 1399.74 82.0151 1399.37 82.1551C1399 82.2952 1398.59 82.1271 1397.77 81.791L1370.3 70.5312C1369.67 70.2744 1369.36 70.146 1369.05 70.2154C1368.74 70.2849 1368.51 70.5354 1368.06 71.0365L1284.55 162.896L1284.55 162.896C1284.28 163.194 1284.14 163.343 1283.97 163.428C1283.79 163.512 1283.59 163.524 1283.18 163.547L1050.46 176.973C1050.23 176.987 1050.12 176.993 1050 176.974C1049.89 176.955 1049.79 176.91 1049.57 176.821L911.28 118.827C910.895 118.666 910.703 118.585 910.5 118.586C910.298 118.586 910.106 118.668 909.722 118.831L799.926 165.606C799.472 165.799 799.244 165.896 799.008 165.881C798.771 165.866 798.558 165.741 798.132 165.492L737.968 130.274C737.735 130.138 737.619 130.07 737.491 130.035C737.362 130 737.227 130 736.958 130H710.172C709.839 130 709.672 130 709.517 129.948C709.363 129.896 709.23 129.796 708.965 129.595L638.8 76.4843C638.178 76.013 637.866 75.7773 637.51 75.7902C637.155 75.803 636.861 76.0606 636.274 76.5757L589.597 117.537C589.068 118.002 588.803 118.234 588.479 118.263C588.154 118.292 587.852 118.111 587.249 117.749L564.548 104.129C564.038 103.823 563.783 103.67 563.501 103.672C563.22 103.674 562.968 103.831 562.463 104.145L562.462 104.145Z" fill="url(#paint0_linear_58_137)"/>
<path className='hills hills3' d="M145.191 61.2198L67.2919 133.83L67.2919 133.83C66.4632 134.602 66.0488 134.988 66.0799 135.462C66.111 135.935 66.5723 136.264 67.495 136.922L231.832 254.024L231.832 254.024C232.162 254.259 232.326 254.376 232.518 254.421C232.71 254.466 232.91 254.434 233.31 254.37L359.441 234.09C359.719 234.045 359.857 234.023 359.995 234.039C360.133 234.055 360.263 234.109 360.523 234.217L571.445 321.563C571.96 321.776 572.218 321.883 572.481 321.85C572.744 321.816 572.967 321.648 573.413 321.313L618.33 287.504C618.661 287.255 618.826 287.131 619.021 287.082C619.216 287.032 619.42 287.063 619.829 287.124L712.264 300.965C712.382 300.982 712.441 300.991 712.5 300.993C712.56 300.995 712.619 300.989 712.738 300.979L997.286 275.519C997.393 275.51 997.446 275.505 997.5 275.506C997.553 275.507 997.607 275.513 997.713 275.527L1140.5 293.437C1140.75 293.468 1140.87 293.484 1141 293.469C1141.12 293.454 1141.24 293.408 1141.47 293.318L1364.41 207.001C1365.59 206.544 1366.18 206.316 1366.31 205.821C1366.44 205.326 1366.04 204.838 1365.24 203.863L1365.23 203.862L1275.96 95.7636C1275.28 94.9424 1274.94 94.5318 1274.49 94.519C1274.03 94.5062 1273.67 94.897 1272.95 95.6788L1213.04 160.417C1212.77 160.705 1212.64 160.849 1212.47 160.931C1212.29 161.014 1212.1 161.027 1211.71 161.054L925.254 180.449C924.881 180.474 924.695 180.487 924.52 180.434C924.345 180.381 924.197 180.268 923.901 180.04L883.016 148.663C882.299 148.113 881.94 147.838 881.541 147.881C881.143 147.924 880.851 148.27 880.269 148.961L836.777 200.578C836.398 201.027 836.209 201.252 835.946 201.341C835.683 201.431 835.396 201.368 834.822 201.243L673.624 166.136C673.315 166.069 673.16 166.035 673.005 166.05C672.85 166.064 672.704 166.127 672.412 166.251L590.673 201.212C590.34 201.355 590.174 201.426 589.997 201.435C589.82 201.445 589.646 201.391 589.3 201.285L414.413 147.627C414.207 147.564 414.104 147.532 413.998 147.523C413.892 147.514 413.785 147.528 413.572 147.555L270.882 165.887C270.448 165.942 270.231 165.97 270.027 165.91C269.824 165.849 269.657 165.706 269.325 165.421L147.858 61.1652C147.212 60.6109 146.889 60.3338 146.507 60.3416C146.125 60.3495 145.814 60.6396 145.191 61.2198Z" fill="url(#paint1_linear_58_137)"/>
<path className='hills hills4' d="M231.831 238.023L3.16215 74.7577C1.77715 73.7688 1.08466 73.2744 0.542328 73.5536C0 73.8327 0 74.6836 0 76.3854V467C0 467.943 0 468.414 0.292893 468.707C0.585786 469 1.05719 469 1.99999 469H570.5C571.443 469 571.914 469 572.207 468.707C572.5 468.414 572.5 467.943 572.5 467V306.839C572.5 306.19 572.5 305.866 572.331 305.613C572.162 305.361 571.862 305.237 571.261 304.99L360.522 218.215C360.263 218.108 360.133 218.055 359.995 218.039C359.858 218.023 359.72 218.045 359.443 218.09L233.311 238.37H233.311C232.911 238.434 232.711 238.466 232.519 238.421C232.326 238.376 232.161 238.258 231.831 238.023Z" fill="url(#paint2_linear_58_137)"/>
<path className='hills hills5' d="M618.281 239.109L358.528 465.489C356.837 466.963 355.991 467.7 356.235 468.35C356.478 468.999 357.6 468.998 359.843 468.997H359.843L1438.5 468.419C1439.44 468.418 1439.91 468.418 1440.21 468.125C1440.5 467.832 1440.5 467.361 1440.5 466.419V114.096C1440.5 112.701 1440.5 112.003 1440.04 111.708C1439.59 111.412 1438.95 111.699 1437.68 112.273L1141.53 245.81C1141.27 245.929 1141.14 245.989 1140.99 246.009C1140.85 246.029 1140.71 246.008 1140.42 245.966L997.747 225.13C997.624 225.112 997.562 225.103 997.5 225.102C997.438 225.101 997.375 225.107 997.251 225.12L712.777 254.753L712.776 254.753C712.638 254.768 712.569 254.775 712.5 254.772C712.431 254.77 712.363 254.758 712.226 254.734L619.939 238.647C619.477 238.566 619.247 238.526 619.029 238.587C618.811 238.647 618.635 238.801 618.281 239.109Z" fill="url(#paint3_linear_58_137)"/>
<path className='hills hills1' d="M619.5 408.304L449.673 465.097L449.673 465.097C445.244 466.578 443.03 467.318 443.166 468.158C443.303 468.997 445.638 468.996 450.308 468.993L1439 468.454C1439.94 468.454 1440.41 468.453 1440.71 468.161C1441 467.868 1441 467.397 1441 466.454V214.74C1441 213.488 1441 212.862 1440.59 212.562C1440.18 212.263 1439.58 212.453 1438.39 212.835L1208.95 286.221C1208.73 286.293 1208.61 286.329 1208.5 286.338C1208.38 286.347 1208.26 286.328 1208.03 286.291L1002.55 253.645C1002.28 253.601 1002.14 253.58 1002 253.595C1001.87 253.611 1001.74 253.662 1001.48 253.766L619.5 408.304Z" fill="url(#paint4_linear_58_137)"/>
<defs>
<linearGradient id="paint0_linear_58_137" x1="1403" y1="-56.4999" x2="582.5" y2="238.5" gradientUnits="userSpaceOnUse">
<stop stop-color="#C97FE2"/>
<stop offset="0.491021" stop-color="#FF594F"/>
<stop offset="0.732053" stop-color="#38368F"/>
<stop offset="1" stop-color="#E2857F"/>
</linearGradient>
<linearGradient id="paint1_linear_58_137" x1="904" y1="-212" x2="716.25" y2="322" gradientUnits="userSpaceOnUse">
<stop stop-color="#CA7E5D"/>
<stop offset="1" stop-color="#553072"/>
</linearGradient>
<linearGradient id="paint2_linear_58_137" x1="435.5" y1="56.5" x2="33.5" y2="522.5" gradientUnits="userSpaceOnUse">
<stop stop-color="#3E2361"/>
<stop offset="1" stop-color="#040615"/>
</linearGradient>
<linearGradient id="paint3_linear_58_137" x1="998" y1="235.572" x2="254.606" y2="459.765" gradientUnits="userSpaceOnUse">
<stop stop-color="#341B55"/>
<stop offset="1" stop-color="#4E2B7B"/>
</linearGradient>
<linearGradient id="paint4_linear_58_137" x1="1007.5" y1="249.73" x2="1268.22" y2="642.389" gradientUnits="userSpaceOnUse">
<stop stop-color="#220F40"/>
<stop offset="1" stop-color="#34244F"/>
</linearGradient>
</defs>
</svg>