 <svg width="14" height="14" viewBox="0 0 14 14" fill="none" xmlns="http://www.w3.org/2000/svg">
<path d="M6.72635 0.390625C5.00264 0.390625 4.78631 0.398162 4.10931 0.428972C3.43362 0.459914 2.97242 0.56689 2.56886 0.723848C2.15142 0.885964 1.79731 1.10282 1.44453 1.45575C1.09148 1.80854 0.874627 2.16266 0.711987 2.57998C0.554636 2.98368 0.447532 3.44504 0.41712 4.12048C0.38684 4.7975 0.378906 5.01396 0.378906 6.73773C0.378906 8.4615 0.386576 8.67717 0.417252 9.3542C0.448326 10.0299 0.555298 10.4911 0.712119 10.8947C0.874362 11.3121 1.09122 11.6663 1.44413 12.0191C1.79678 12.3721 2.15089 12.5895 2.56806 12.7516C2.97189 12.9086 3.43323 13.0155 4.10878 13.0465C4.78578 13.0773 5.00197 13.0848 6.72556 13.0848C8.44941 13.0848 8.66507 13.0773 9.34208 13.0465C10.0178 13.0155 10.4795 12.9086 10.8833 12.7516C11.3006 12.5895 11.6542 12.3721 12.0069 12.0191C12.3599 11.6663 12.5768 11.3121 12.7394 10.8948C12.8954 10.4911 13.0025 10.0298 13.0343 9.35433C13.0647 8.6773 13.0726 8.4615 13.0726 6.73773C13.0726 5.01396 13.0647 4.79763 13.0343 4.12061C13.0025 3.44491 12.8954 2.98368 12.7394 2.58011C12.5768 2.16266 12.3599 1.80854 12.0069 1.45575C11.6538 1.10269 11.3008 0.885832 10.8829 0.723848C10.4783 0.56689 10.0168 0.459914 9.34115 0.428972C8.66415 0.398162 8.44861 0.390625 6.72437 0.390625H6.72635ZM6.15698 1.53443C6.32597 1.53416 6.51452 1.53443 6.72635 1.53443C8.42098 1.53443 8.62183 1.54051 9.29104 1.57092C9.90986 1.59922 10.2457 1.70263 10.4694 1.7895C10.7656 1.90454 10.9768 2.04206 11.1988 2.26421C11.421 2.48636 11.5585 2.69793 11.6738 2.99413C11.7606 3.2176 11.8642 3.55347 11.8923 4.17231C11.9228 4.8414 11.9294 5.04239 11.9294 6.73628C11.9294 8.43016 11.9228 8.63115 11.8923 9.30024C11.864 9.91909 11.7606 10.255 11.6738 10.4784C11.5587 10.7746 11.421 10.9855 11.1988 11.2076C10.9767 11.4297 10.7658 11.5672 10.4694 11.6823C10.246 11.7695 9.90986 11.8727 9.29104 11.901C8.62196 11.9314 8.42098 11.938 6.72635 11.938C5.03159 11.938 4.83074 11.9314 4.16167 11.901C3.54284 11.8724 3.20699 11.769 2.98313 11.6821C2.68694 11.5671 2.47537 11.4296 2.25323 11.2074C2.03109 10.9853 1.89357 10.7742 1.77827 10.4779C1.6914 10.2544 1.58786 9.91856 1.5597 9.29972C1.52928 8.63062 1.5232 8.42963 1.5232 6.73469C1.5232 5.03975 1.52928 4.83982 1.5597 4.17072C1.58799 3.55188 1.6914 3.21601 1.77827 2.99228C1.89331 2.69608 2.03109 2.48451 2.25323 2.26236C2.47537 2.04021 2.68694 1.90269 2.98313 1.78739C3.20685 1.70011 3.54284 1.59697 4.16167 1.56854C4.74717 1.5421 4.97407 1.53416 6.15698 1.53284V1.53443ZM10.1143 2.58831C9.6938 2.58831 9.35265 2.92907 9.35265 3.3497C9.35265 3.7702 9.6938 4.11135 10.1143 4.11135C10.5348 4.11135 10.8759 3.7702 10.8759 3.3497C10.8759 2.9292 10.5348 2.58805 10.1143 2.58805V2.58831ZM6.72635 3.47823C4.92634 3.47823 3.46695 4.93767 3.46695 6.73773C3.46695 8.5378 4.92634 9.99657 6.72635 9.99657C8.52636 9.99657 9.98523 8.5378 9.98523 6.73773C9.98523 4.93767 8.52623 3.47823 6.72622 3.47823H6.72635ZM6.72635 4.62203C7.89471 4.62203 8.84199 5.5692 8.84199 6.73773C8.84199 7.90613 7.89471 8.85343 6.72635 8.85343C5.55786 8.85343 4.61071 7.90613 4.61071 6.73773C4.61071 5.5692 5.55786 4.62203 6.72635 4.62203Z" fill="#243665"/>
</svg> 

