<svg width="15" height="14" viewBox="0 0 15 14" fill="none" xmlns="http://www.w3.org/2000/svg">
<g clip-path="url(#clip0_9218_106842)">
<path d="M0 1.60956C0 1.14301 0.163293 0.758115 0.489865 0.454875C0.816437 0.15162 1.241 0 1.76351 0C2.27671 0 2.69192 0.149283 3.00917 0.447876C3.33574 0.755792 3.49903 1.157 3.49903 1.65154C3.49903 2.09942 3.34042 2.47264 3.02317 2.77124C2.69659 3.07915 2.26737 3.23311 1.73552 3.23311H1.72153C1.20833 3.23311 0.793119 3.07915 0.475869 2.77124C0.158618 2.46332 0 2.07609 0 1.60956ZM0.18195 13.8562V4.50676H3.28909V13.8562H0.18195ZM5.01062 13.8562H8.11776V8.63562C8.11776 8.30903 8.15509 8.0571 8.22973 7.87983C8.36036 7.56258 8.55864 7.29431 8.82457 7.07505C9.09049 6.85577 9.42406 6.74614 9.82529 6.74614C10.8703 6.74614 11.3929 7.45061 11.3929 8.85956V13.8562H14.5V8.49566C14.5 7.1147 14.1734 6.06733 13.5203 5.35352C12.8671 4.63972 12.004 4.28282 10.931 4.28282C9.72732 4.28282 8.78958 4.80068 8.11776 5.83639V5.86438H8.10376L8.11776 5.83639V4.50676H5.01062C5.02927 4.80534 5.03861 5.73374 5.03861 7.29199C5.03861 8.85022 5.02927 11.0383 5.01062 13.8562Z" fill="#243665"/>
</g>
<defs>
<clipPath id="clip0_9218_106842">
<rect width="14.5" height="13.8562" fill="white"/>
</clipPath>
</defs>
</svg>
