<svg width="196" height="80" viewBox="0 0 196 80" fill="none" xmlns="http://www.w3.org/2000/svg">
<path d="M19.6451 53.3248C25.0651 61.3048 30.7151 70.3548 37.9251 74.4748C50.7651 81.8148 68.1751 79.4748 81.7051 75.5848C111.115 67.1248 131.735 37.8848 161.585 33.2148C167.645 32.2648 173.875 32.6148 179.895 31.3848C185.905 30.1548 192.025 26.8748 194.295 21.1648C197.265 13.6648 191.975 4.74482 184.525 1.65482C177.075 -1.43518 168.435 0.164819 161.075 3.47482C153.725 6.78482 147.215 11.6948 140.145 15.5748C106.295 34.1248 64.1651 26.9848 27.9051 13.7248C19.5151 10.6548 8.67508 7.82482 2.79508 14.5648C-5.80492 24.4448 7.62507 38.0848 13.7251 45.2748C15.7151 47.6148 17.6651 50.3948 19.6551 53.3148L19.6451 53.3248Z" fill="#6D4B43"/>
</svg>
