<svg width="285" height="246" viewBox="0 0 285 246" fill="none" xmlns="http://www.w3.org/2000/svg">
<path d="M185.829 16.5999C180.359 20.9899 175.129 26.1999 169.959 32.1899C138.739 68.3099 99.4989 87.8899 59.3489 111.8C36.3889 125.47 7.04895 144.72 1.16895 172.71C-2.08105 188.18 1.5389 204.96 10.8689 217.72C27.9589 241.09 60.329 247.91 89.179 245.4C139.999 240.98 186.449 213.55 223.989 179.01C243.699 160.88 261.709 140.3 272.989 116.01C284.269 91.7299 288.339 63.3299 280.009 37.8799C273.819 18.9599 258.399 1.0199 238.509 0.109901C216.669 -0.890099 200.369 4.9599 185.839 16.6099L185.829 16.5999Z" fill="#AF824A"/>
</svg>
