<svg width="184" height="356" viewBox="0 0 184 356" fill="none" xmlns="http://www.w3.org/2000/svg">
<path d="M108.59 319.72C106.52 290.34 103.38 261.2 96.18 232.4C82.82 195.71 59.68 163.32 33.27 134.88C19.05 119.57 3.13002 103.49 0.400024 82.7801C-2.53998 60.4001 11.14 38.9401 27.83 23.7401C45.13 7.98013 68.62 -3.88986 91.46 1.19014C108.79 5.04014 122.77 18.0401 132.91 32.6101C143.05 47.1801 150.16 63.6201 159.45 78.7501C169.35 94.8701 182.12 110.61 183.41 129.48C184.31 142.63 179.41 155.37 176.27 168.16C163.67 219.5 189.22 280.93 159.76 328.43C151.77 341.31 139.03 351.66 124.17 354.63C121.89 355.09 119.5 355.36 117.24 354.78C112.96 353.67 109.98 349.59 108.89 345.3C106.83 337.19 109.16 328.02 108.57 319.73L108.59 319.72Z" fill="#AF824A"/>
</svg>
